<svg width="72" height="43" viewBox="0 0 72 43" fill="none" xmlns="http://www.w3.org/2000/svg">
<path d="M35.2998 41.4996C54.5193 41.4996 70.0999 32.6797 70.0999 21.7997C70.0999 10.9197 54.5193 2.09961 35.2998 2.09961C16.0803 2.09961 0.5 10.9197 0.5 21.7997C0.5 32.6797 16.0803 41.4996 35.2998 41.4996Z" fill="#FE1313" stroke="white" stroke-miterlimit="10"/>
<path d="M9.52002 22.9212V22.4812C9.94002 22.4912 10.4798 22.5212 10.8298 22.1812C11.1398 21.8812 11.08 21.3612 11.2 20.9312V13.4611C11.05 12.9111 11.2 12.2612 10.78 11.9312C10.42 11.6512 9.92002 11.6612 9.52002 11.6812V11.2412L13.8499 11.2111C14.3699 11.2111 14.8599 11.1711 15.3699 11.2111C16.8399 11.3011 18.2098 11.7312 19.2898 12.7312C20.9298 14.2312 21.44 15.9312 21.27 18.1312C21.07 20.7012 19.11 22.7312 16.46 22.8912L9.52002 22.9411V22.9212ZM18.8899 19.1512L18.98 18.2211C19.04 17.5611 19.02 16.8912 18.98 16.2312C18.81 13.8112 17.5498 11.9112 15.0398 11.7512L13.5999 11.6612C13.3299 11.6412 13.0798 11.8412 13.0798 12.1312V20.6212C13.0798 21.0712 13.15 21.6212 13.46 21.9112C13.97 22.3912 14.6398 22.4012 15.2998 22.4112C17.5098 22.4112 18.6899 21.4212 18.9099 19.1612L18.8899 19.1512Z" fill="white"/>
<path d="M25.73 17.1606V21.0507C25.74 21.5507 26.1498 21.9806 26.5898 22.1506C27.7098 22.5706 29.8198 22.5006 30.7998 21.7706C31.6298 21.1506 31.29 20.0006 31.7 19.9706C32.03 19.9506 32.05 20.0606 32.02 20.3406L31.9099 21.8506L31.8398 22.9106H22.1199L22.1099 22.4806C22.5599 22.4706 22.9999 22.4806 23.3699 22.2106C23.5899 22.0506 23.78 21.5206 23.78 21.2106V12.9406C23.78 12.6506 23.6099 12.1306 23.4099 11.9906C23.0599 11.7606 22.6199 11.7507 22.1499 11.6707L22.1199 11.1406H30.96V13.8806H30.5398C30.2598 12.5106 29.7498 11.6906 28.2998 11.7606C27.8998 11.7806 27.5299 11.7006 27.1499 11.7006L25.73 11.6807V16.5306C26.52 16.6006 27.35 16.5606 27.96 16.0306C28.38 15.6606 28.48 15.0906 28.5 14.5006C28.65 14.4506 28.9598 14.4207 29.0498 14.4307L28.98 16.2806V17.4406L29.0498 19.0006C29.0698 19.0006 28.7999 19.0306 28.6899 19.0406C28.5899 19.0506 28.5 18.8106 28.48 18.6906C28.35 17.9006 27.78 17.2206 26.96 17.2006L25.74 17.1707L25.73 17.1606Z" fill="white"/>
<path d="M32.5698 11.2303H37.6799L37.6899 11.5404C37.6899 11.6204 36.2898 11.5803 36.3198 12.3303C36.3398 12.7903 36.52 13.3603 36.7 13.8303L39.0999 20.0504L40.6099 16.5304L42.76 12.2303L43.6199 10.7904L44.95 8.62036L43.6099 8.39038C44.7699 7.83038 45.7699 7.24039 46.8899 6.40039C46.4699 7.59039 46.2199 8.70035 46.1599 9.98035L45.3999 8.96033C44.6599 10.2603 44.0299 11.4903 43.4399 12.8203L42.0999 15.8203L39.1199 23.1804C39.0199 23.3204 38.62 23.3103 38.47 23.2203L35.3499 15.4703L34.3699 13.0604C33.9799 12.0904 33.7498 11.8104 32.5798 11.6504V11.2303H32.5698Z" fill="white"/>
<path d="M60.8799 21.6609C61.5699 20.9309 61.5099 19.7909 61.6399 19.7709L62.0798 19.7208L62.01 20.8809C61.97 21.5709 62.0099 22.2309 61.8799 22.9209H51.73V22.5609C51.73 22.4009 52.7198 22.6009 53.0698 22.1609C53.2998 21.8609 53.45 21.3409 53.45 20.9309V13.3708L53.3398 12.5309C53.1898 11.4409 52.1598 11.8008 51.8298 11.5808C51.7398 11.5208 51.7699 11.1809 51.8499 11.1309L52.5 11.2408H56.3799L57.03 11.1509L56.99 11.6008C56.97 11.8408 55.7 11.2809 55.48 12.5409L55.3499 13.2809V20.3508L55.46 21.1309C55.56 21.8709 56.0598 22.3608 56.8098 22.3608H59.3098C59.8998 22.3608 60.4999 22.0709 60.8899 21.6609H60.8799Z" fill="white"/>
<path d="M50.48 22.921H45.1599V22.501C45.5999 22.471 46.1 22.481 46.46 22.171C46.69 21.981 46.8098 21.371 46.8098 21.021V13.281L46.72 12.5909C46.51 11.2109 45.0598 11.9409 45.0398 11.4709C45.0398 11.3109 45.12 11.2109 45.26 11.2109H50.3699C50.3699 11.2909 50.3498 11.4809 50.3298 11.5709C50.2698 11.7809 48.9598 11.401 48.8098 12.511L48.7 13.281V21.021C48.7 21.371 48.84 21.891 49.02 22.131C49.52 22.781 50.64 22.131 50.47 22.921H50.48Z" fill="white"/>
<path d="M12.0158 33.12C12.2032 33.12 12.412 33.0092 12.642 32.7877C12.872 32.5662 13.1063 32.2637 13.3449 31.8803C13.5835 31.4884 13.805 31.0368 14.0095 30.5256C14.2139 30.0144 14.3843 29.4691 14.5207 28.8898L14.2906 30.2828C14.0009 31.0922 13.7027 31.744 13.396 32.2381C13.0978 32.7238 12.7911 33.0774 12.4759 33.2989C12.1606 33.5119 11.8369 33.6184 11.5046 33.6184C11.0786 33.6184 10.7591 33.4778 10.5461 33.1966C10.3331 32.907 10.2266 32.5278 10.2266 32.0592C10.2266 31.6332 10.2947 31.1774 10.4311 30.6918C10.5759 30.2061 10.7719 29.7247 11.0189 29.2476C11.2745 28.7705 11.5642 28.3402 11.888 27.9568C12.2117 27.5734 12.5611 27.2667 12.9359 27.0367C13.3108 26.7981 13.6857 26.6788 14.0606 26.6788C14.3503 26.6788 14.5718 26.8152 14.7251 27.0878C14.887 27.3519 14.9254 27.7396 14.8402 28.2508L14.6996 28.3275C14.7592 27.927 14.7337 27.6075 14.6229 27.369C14.5207 27.1219 14.3503 26.9983 14.1117 26.9983C13.9072 26.9983 13.69 27.1048 13.4599 27.3178C13.2299 27.5223 13.0041 27.8077 12.7826 28.1741C12.5696 28.5319 12.3694 28.9366 12.1819 29.3882C12.003 29.8398 11.8624 30.3084 11.7602 30.794C11.6579 31.2711 11.6068 31.7397 11.6068 32.1998C11.6068 32.5406 11.6409 32.7792 11.7091 32.9155C11.7857 33.0518 11.888 33.12 12.0158 33.12ZM15.0702 26.8578C15.3258 26.8492 15.5729 26.8322 15.8114 26.8066C16.05 26.7811 16.2715 26.7385 16.476 26.6788L14.8529 32.3404C14.8274 32.4341 14.8018 32.5406 14.7763 32.6599C14.7592 32.7706 14.7635 32.8686 14.789 32.9538C14.8231 33.039 14.9041 33.0816 15.0319 33.0816C15.1852 33.0816 15.3386 33.0007 15.4919 32.8388C15.6453 32.6684 15.7987 32.3489 15.952 31.8803L16.1309 31.3563H16.3738L16.0543 32.2893C15.935 32.6386 15.7901 32.907 15.6197 33.0944C15.4493 33.2818 15.2662 33.4139 15.0702 33.4906C14.8828 33.5758 14.6996 33.6184 14.5207 33.6184C14.1458 33.6184 13.8817 33.4991 13.7283 33.2605C13.6175 33.0731 13.5792 32.8473 13.6133 32.5832C13.6559 32.3106 13.7155 32.0294 13.7922 31.7397L15.0702 26.8578ZM21.82 27.1773C21.6156 27.1773 21.3855 27.3178 21.1299 27.599C20.8828 27.8802 20.6315 28.2593 20.3759 28.7364C20.1203 29.2135 19.8775 29.7546 19.6474 30.3595C19.4174 30.9644 19.2257 31.5906 19.0723 32.2381L19.3024 30.8835C19.6432 29.8696 19.9712 29.0559 20.2864 28.4425C20.6017 27.829 20.9254 27.3817 21.2577 27.1006C21.59 26.8194 21.9393 26.6788 22.3057 26.6788C22.7402 26.6788 23.081 26.8365 23.3281 27.1517C23.5837 27.4584 23.7115 27.9185 23.7115 28.5319C23.7115 28.9239 23.6561 29.3499 23.5453 29.8099C23.4431 30.2615 23.2855 30.7131 23.0725 31.1646C22.868 31.6077 22.6124 32.0166 22.3057 32.3915C21.999 32.7664 21.6496 33.0646 21.2577 33.2861C20.8658 33.5076 20.427 33.6184 19.9414 33.6184C19.6858 33.6184 19.4515 33.5502 19.2385 33.4139C19.034 33.2776 18.8892 33.0859 18.804 32.8388L18.9062 32.596C19.017 32.8516 19.1405 33.0348 19.2768 33.1455C19.4217 33.2478 19.5878 33.2989 19.7752 33.2989C20.0479 33.2989 20.312 33.1924 20.5676 32.9794C20.8232 32.7579 21.0575 32.4639 21.2705 32.0976C21.492 31.7312 21.6837 31.3265 21.8456 30.8835C22.016 30.4404 22.1438 29.9931 22.229 29.5416C22.3142 29.09 22.3568 28.6683 22.3568 28.2763C22.3568 27.8844 22.3099 27.6033 22.2162 27.4329C22.1225 27.2625 21.9904 27.1773 21.82 27.1773ZM19.8136 24.9535C20.0692 24.9365 20.3163 24.9109 20.5548 24.8769C20.7934 24.8428 21.0192 24.7874 21.2322 24.7107L18.4333 34.513C18.3226 34.8964 18.3652 35.152 18.5611 35.2798C18.7571 35.4161 19.0553 35.4843 19.4557 35.4843L19.3791 35.7526C19.2001 35.7441 18.9445 35.7313 18.6123 35.7143C18.28 35.7058 17.9307 35.7015 17.5643 35.7015C17.2746 35.7015 16.9807 35.7058 16.6825 35.7143C16.3843 35.7313 16.1628 35.7441 16.0179 35.7526L16.0946 35.4843C16.4013 35.4843 16.6228 35.4246 16.7592 35.3053C16.8955 35.1946 17.0062 34.9901 17.0914 34.6919L19.8136 24.9535ZM17.2192 28.9026C17.543 28.5788 17.8455 28.255 18.1266 27.9313C18.4163 27.6075 18.6932 27.2241 18.9573 26.7811C19.23 26.338 19.5026 25.7757 19.7752 25.0941L19.8136 25.2986C19.6347 25.8865 19.4174 26.4019 19.1618 26.845C18.9062 27.2795 18.625 27.6757 18.3183 28.0335C18.0201 28.3914 17.7006 28.7364 17.3598 29.0687L17.2192 28.9026ZM28.9963 27.1773C28.7918 27.1773 28.5618 27.3178 28.3062 27.599C28.0591 27.8802 27.8078 28.2593 27.5522 28.7364C27.2966 29.2135 27.0537 29.7546 26.8237 30.3595C26.5937 30.9644 26.402 31.5906 26.2486 32.2381L26.4786 30.8835C26.8194 29.8696 27.1475 29.0559 27.4627 28.4425C27.7779 27.829 28.1017 27.3817 28.434 27.1006C28.7663 26.8194 29.1156 26.6788 29.4819 26.6788C29.9165 26.6788 30.2573 26.8365 30.5043 27.1517C30.7599 27.4584 30.8877 27.9185 30.8877 28.5319C30.8877 28.9239 30.8324 29.3499 30.7216 29.8099C30.6194 30.2615 30.4617 30.7131 30.2487 31.1646C30.0443 31.6077 29.7887 32.0166 29.4819 32.3915C29.1752 32.7664 28.8259 33.0646 28.434 33.2861C28.0421 33.5076 27.6033 33.6184 27.1176 33.6184C26.862 33.6184 26.6277 33.5502 26.4147 33.4139C26.2103 33.2776 26.0654 33.0859 25.9802 32.8388L26.0825 32.596C26.1932 32.8516 26.3168 33.0348 26.4531 33.1455C26.5979 33.2478 26.7641 33.2989 26.9515 33.2989C27.2241 33.2989 27.4883 33.1924 27.7439 32.9794C27.9995 32.7579 28.2338 32.4639 28.4468 32.0976C28.6683 31.7312 28.86 31.3265 29.0219 30.8835C29.1923 30.4404 29.3201 29.9931 29.4053 29.5416C29.4905 29.09 29.5331 28.6683 29.5331 28.2763C29.5331 27.8844 29.4862 27.6033 29.3925 27.4329C29.2988 27.2625 29.1667 27.1773 28.9963 27.1773ZM26.9898 24.9535C27.2454 24.9365 27.4925 24.9109 27.7311 24.8769C27.9696 24.8428 28.1954 24.7874 28.4084 24.7107L25.6096 34.513C25.4988 34.8964 25.5414 35.152 25.7374 35.2798C25.9334 35.4161 26.2316 35.4843 26.632 35.4843L26.5553 35.7526C26.3764 35.7441 26.1208 35.7313 25.7885 35.7143C25.4562 35.7058 25.1069 35.7015 24.7406 35.7015C24.4509 35.7015 24.1569 35.7058 23.8587 35.7143C23.5605 35.7313 23.339 35.7441 23.1942 35.7526L23.2709 35.4843C23.5776 35.4843 23.7991 35.4246 23.9354 35.3053C24.0717 35.1946 24.1825 34.9901 24.2677 34.6919L26.9898 24.9535ZM24.3955 28.9026C24.7193 28.5788 25.0217 28.255 25.3029 27.9313C25.5926 27.6075 25.8695 27.2241 26.1336 26.7811C26.4062 26.338 26.6789 25.7757 26.9515 25.0941L26.9898 25.2986C26.8109 25.8865 26.5937 26.4019 26.3381 26.845C26.0825 27.2795 25.8013 27.6757 25.4946 28.0335C25.1964 28.3914 24.8769 28.7364 24.5361 29.0687L24.3955 28.9026ZM33.0415 33.4395H31.6996L33.2332 27.9441C33.3099 27.6714 33.3354 27.4797 33.3099 27.369C33.2843 27.2582 33.2034 27.2028 33.067 27.2028C32.8966 27.2028 32.739 27.2923 32.5942 27.4712C32.4493 27.6501 32.296 27.9611 32.1341 28.4041L31.9424 28.9409H31.6996L32.0191 27.9952C32.1469 27.6459 32.3002 27.3775 32.4792 27.19C32.6581 27.0026 32.8455 26.8705 33.0415 26.7939C33.246 26.7172 33.4462 26.6788 33.6421 26.6788C33.9063 26.6788 34.098 26.7342 34.2172 26.845C34.3365 26.9557 34.4089 27.1006 34.4345 27.2795C34.4601 27.4584 34.4558 27.6544 34.4217 27.8674C34.3962 28.0719 34.3578 28.2721 34.3067 28.468L33.0415 33.4395ZM36.3132 26.9856C36.1257 26.9856 35.9298 27.0665 35.7253 27.2284C35.5208 27.3817 35.3121 27.616 35.0991 27.9313C34.8861 28.2465 34.6688 28.6427 34.4473 29.1198C34.2343 29.5969 34.017 30.155 33.7955 30.794C33.5825 31.4245 33.3695 32.1402 33.1565 32.941L33.4632 31.2796C33.7359 30.4106 33.9915 29.6821 34.23 29.0943C34.4686 28.5064 34.7029 28.0378 34.9329 27.6885C35.1715 27.3306 35.4143 27.075 35.6614 26.9217C35.917 26.7598 36.1896 26.6788 36.4793 26.6788C36.7519 26.6788 36.9607 26.7598 37.1055 26.9217C37.2589 27.075 37.3356 27.271 37.3356 27.5095C37.3356 27.7055 37.2887 27.8844 37.195 28.0463C37.1013 28.1997 36.9777 28.3275 36.8244 28.4297C36.6795 28.5234 36.5134 28.5703 36.3259 28.5703C36.147 28.5703 36.0022 28.5234 35.8914 28.4297C35.7807 28.3275 35.7253 28.1869 35.7253 28.008C35.7253 27.8461 35.7594 27.7012 35.8275 27.5734C35.8957 27.4456 35.9851 27.3349 36.0959 27.2412C36.2067 27.1474 36.3302 27.0793 36.4665 27.0367C36.4495 27.0196 36.4282 27.0069 36.4026 26.9983C36.3771 26.9898 36.3472 26.9856 36.3132 26.9856ZM40.7584 26.9344C40.5113 26.9344 40.2685 27.0452 40.0299 27.2667C39.7914 27.4882 39.5656 27.7907 39.3526 28.1741C39.1481 28.549 38.9649 28.9707 38.8031 29.4393C38.6412 29.9079 38.5134 30.3936 38.4197 30.8962C38.3345 31.3989 38.2919 31.876 38.2919 32.3276C38.2919 32.6854 38.343 32.9496 38.4452 33.12C38.556 33.2818 38.7136 33.3628 38.9181 33.3628C39.1652 33.3628 39.408 33.252 39.6465 33.0305C39.8851 32.809 40.1109 32.5108 40.3239 32.1359C40.5369 31.761 40.7201 31.3435 40.8734 30.8835C41.0353 30.4149 41.1588 29.9292 41.244 29.4265C41.3378 28.9239 41.3846 28.4382 41.3846 27.9696C41.3846 27.5947 41.3335 27.3306 41.2313 27.1773C41.129 27.0154 40.9714 26.9344 40.7584 26.9344ZM36.9883 31.5736C36.9883 31.1987 37.0394 30.7897 37.1417 30.3467C37.2439 29.9037 37.4015 29.4649 37.6145 29.0304C37.8275 28.5958 38.0831 28.2039 38.3813 27.8546C38.688 27.4968 39.0459 27.2113 39.4548 26.9983C39.8723 26.7853 40.3324 26.6788 40.8351 26.6788C41.4059 26.6788 41.8575 26.8492 42.1898 27.19C42.522 27.5223 42.6882 28.0335 42.6882 28.7236C42.6882 29.0985 42.6371 29.5075 42.5348 29.9505C42.4326 30.3936 42.275 30.8323 42.062 31.2669C41.849 31.7014 41.5891 32.0976 41.2824 32.4554C40.9842 32.8047 40.6263 33.0859 40.2089 33.2989C39.7999 33.5119 39.3441 33.6184 38.8414 33.6184C38.2706 33.6184 37.819 33.448 37.4867 33.1072C37.1544 32.7664 36.9883 32.2552 36.9883 31.5736ZM49.2054 28.8131C48.9327 28.6768 48.6857 28.4808 48.4641 28.2252C48.2426 27.9696 48.1404 27.6629 48.1574 27.3051C48.1745 27.0835 48.2469 26.9217 48.3747 26.8194C48.511 26.7172 48.6558 26.6661 48.8092 26.6661C49.1159 26.6661 49.3289 26.8237 49.4482 27.1389C49.5675 27.4542 49.6058 27.8631 49.5632 28.3658C49.5121 28.86 49.4184 29.3584 49.2821 29.8611C49.1457 30.3552 48.9626 30.8281 48.7325 31.2796C48.511 31.7312 48.2384 32.1359 47.9146 32.4937C47.5994 32.8431 47.2373 33.12 46.8283 33.3244C46.4279 33.5204 45.9806 33.6184 45.4864 33.6184C45.0689 33.6184 44.7452 33.5417 44.5151 33.3883C44.2851 33.2265 44.1232 33.0262 44.0295 32.7877C43.9358 32.5406 43.8974 32.2893 43.9145 32.0337C43.94 31.5395 44.0891 31.0198 44.3618 30.4745C44.6344 29.9292 44.9965 29.3754 45.4481 28.8131C45.9081 28.2508 46.4364 27.7055 47.0328 27.1773C46.8709 27.2199 46.709 27.2923 46.5471 27.3945C46.3853 27.4882 46.2319 27.5862 46.0871 27.6885C45.9422 27.7907 45.8016 27.8802 45.6653 27.9568C45.529 28.025 45.3969 28.0591 45.2691 28.0591C45.1073 28.0591 44.9709 28.0122 44.8602 27.9185C44.7494 27.8163 44.6259 27.7651 44.4896 27.7651C44.3532 27.7651 44.2425 27.8205 44.1573 27.9313C44.0806 28.0335 43.9954 28.221 43.9017 28.4936L43.7739 28.9281H43.5311L43.8122 27.9952C43.9571 27.4755 44.136 27.1261 44.349 26.9472C44.5705 26.7683 44.792 26.6788 45.0135 26.6788C45.1754 26.6788 45.3117 26.7214 45.4225 26.8066C45.5333 26.8833 45.6483 26.96 45.7676 27.0367C45.8868 27.1134 46.0359 27.1517 46.2149 27.1517C46.4023 27.1517 46.5812 27.1261 46.7516 27.075C46.9305 27.0154 47.0967 26.9217 47.25 26.7939L47.3778 26.551L47.6462 26.6788C47.3139 27.1048 47.0157 27.5351 46.7516 27.9696C46.496 28.4041 46.2745 28.8429 46.0871 29.286C45.8996 29.7205 45.7505 30.155 45.6398 30.5895C45.529 31.0155 45.4566 31.4415 45.4225 31.8675C45.3884 32.3191 45.4225 32.6471 45.5247 32.8516C45.627 33.0475 45.7761 33.1455 45.972 33.1455C46.3469 33.1455 46.692 33.0475 47.0072 32.8516C47.331 32.6556 47.6207 32.4 47.8763 32.0848C48.1319 31.761 48.3534 31.4074 48.5408 31.024C48.7283 30.6321 48.8774 30.2445 48.9881 29.8611C49.0989 29.4777 49.1713 29.1283 49.2054 28.8131ZM51.2281 30.5767C51.6626 30.4234 52.0588 30.2658 52.4167 30.1039C52.783 29.942 53.0812 29.7673 53.3113 29.5799C53.6265 29.3158 53.8736 29.0048 54.0525 28.647C54.2399 28.2806 54.3337 27.8802 54.3337 27.4456C54.3337 27.2241 54.3166 27.0835 54.2825 27.0239C54.2485 26.9557 54.1973 26.9217 54.1292 26.9217C53.9247 26.9217 53.7032 27.0154 53.4646 27.2028C53.2346 27.3903 53.0045 27.6501 52.7745 27.9824C52.5445 28.3062 52.3315 28.6768 52.1355 29.0943C51.9481 29.5032 51.7947 29.942 51.6754 30.4106C51.5647 30.8707 51.5093 31.3265 51.5093 31.7781C51.5093 32.2211 51.5902 32.5363 51.7521 32.7238C51.9225 32.9112 52.144 33.0049 52.4167 33.0049C52.6978 33.0049 53.0088 32.9197 53.3496 32.7493C53.6904 32.5704 54.0269 32.2552 54.3592 31.8036L54.5637 31.9059C54.3933 32.187 54.1718 32.4597 53.8991 32.7238C53.6265 32.9879 53.3155 33.2052 52.9662 33.3756C52.6254 33.5374 52.2548 33.6184 51.8543 33.6184C51.505 33.6184 51.194 33.5502 50.9214 33.4139C50.6488 33.2776 50.4358 33.0774 50.2824 32.8132C50.1376 32.5406 50.0651 32.2083 50.0651 31.8164C50.0651 31.4245 50.1333 30.9985 50.2696 30.5384C50.4145 30.0698 50.6147 29.6097 50.8703 29.1582C51.1344 28.7066 51.4454 28.2934 51.8032 27.9185C52.1611 27.5351 52.5615 27.2326 53.0045 27.0111C53.4476 26.7896 53.9162 26.6788 54.4103 26.6788C54.7171 26.6788 54.9727 26.7555 55.1771 26.9089C55.3816 27.0537 55.4839 27.2752 55.4839 27.5734C55.4839 27.9142 55.3859 28.2337 55.1899 28.5319C55.0025 28.8216 54.7469 29.0857 54.4231 29.3243C54.0994 29.5629 53.7458 29.7759 53.3624 29.9633C52.9875 30.1507 52.6084 30.3126 52.225 30.4489C51.8501 30.5853 51.5135 30.696 51.2153 30.7812L51.2281 30.5767ZM60.5496 32.3532C60.49 32.5491 60.4687 32.7238 60.4857 32.8771C60.5113 33.022 60.605 33.0944 60.7669 33.0944C60.9202 33.0944 61.0651 33.0092 61.2014 32.8388C61.3462 32.6684 61.4953 32.3532 61.6487 31.8931L61.8276 31.3691H62.0704L61.7637 32.302C61.6615 32.6428 61.5209 32.9112 61.342 33.1072C61.1716 33.2946 60.9841 33.4267 60.7797 33.5034C60.5837 33.58 60.3963 33.6184 60.2173 33.6184C59.6976 33.6184 59.4079 33.3926 59.3483 32.941C59.3142 32.7962 59.3057 32.6258 59.3227 32.4298C59.3483 32.2254 59.3994 31.9996 59.4761 31.7525L61.2909 24.9152C61.3675 24.6255 61.3548 24.4125 61.2525 24.2762C61.1503 24.1399 60.8904 24.0717 60.4729 24.0717L60.5496 23.8033C61.0693 23.7948 61.5252 23.748 61.9171 23.6628C62.3175 23.569 62.6967 23.4412 63.0545 23.2794L60.5496 32.3532ZM57.623 33.1327C57.8104 33.1327 58.0277 33.0177 58.2748 32.7877C58.5219 32.5576 58.7732 32.2381 59.0288 31.8292C59.2844 31.4202 59.523 30.9431 59.7445 30.3978C59.9745 29.844 60.162 29.2561 60.3068 28.6342L60.1151 30.0144C59.7999 30.8749 59.4846 31.5693 59.1694 32.0976C58.8627 32.6258 58.5432 33.0135 58.2109 33.2605C57.8786 33.4991 57.5122 33.6184 57.1118 33.6184C56.8477 33.6184 56.6091 33.5587 56.3961 33.4395C56.1831 33.3117 56.017 33.1242 55.8977 32.8771C55.7784 32.6215 55.7188 32.2935 55.7188 31.8931C55.7188 31.4926 55.7827 31.0581 55.9105 30.5895C56.0468 30.1209 56.2342 29.6566 56.4728 29.1965C56.7199 28.7364 57.0138 28.3189 57.3546 27.9441C57.7039 27.5607 58.0916 27.2539 58.5176 27.0239C58.9436 26.7939 59.4037 26.6788 59.8978 26.6788C60.1194 26.6788 60.3068 26.7513 60.4602 26.8961C60.622 27.0324 60.7115 27.2369 60.7285 27.5095L60.6263 27.7651C60.5922 27.484 60.5155 27.2838 60.3963 27.1645C60.277 27.0367 60.1321 26.9728 59.9617 26.9728C59.6721 26.9728 59.3866 27.0793 59.1055 27.2923C58.8243 27.5053 58.5645 27.795 58.3259 28.1613C58.0873 28.5192 57.8743 28.9196 57.6869 29.3626C57.508 29.8057 57.3674 30.2658 57.2652 30.7429C57.1629 31.2115 57.1118 31.663 57.1118 32.0976C57.1118 32.4469 57.1544 32.7067 57.2396 32.8771C57.3248 33.0475 57.4526 33.1327 57.623 33.1327Z" fill="white"/>
</svg>
