<svg width="115" height="83" viewBox="0 0 115 83" fill="none" xmlns="http://www.w3.org/2000/svg">
<path d="M105.82 42.3301C106.7 42.5901 107.51 42.9001 108.37 43.4801C111.01 45.2601 110.63 50.1201 109.51 53.3401C108.27 56.8801 106.5 60.1501 104.44 63.2501C104.24 63.5601 103.4 64.8201 103.14 64.7501C102.81 64.6601 103.33 63.0801 103.26 62.7301C103.14 62.1701 102.02 62.5501 103.03 60.9301C104.52 58.5501 105.81 56.1301 106.85 53.5001C107.99 50.6101 109.4 46.4901 107.1 44.7401C106.29 44.1201 105.22 43.9101 104.21 44.1701C100.91 45.0001 98.02 47.0301 95.97 49.7101C94.15 52.0901 92.8301 54.5701 92.6001 57.5801C93.5501 57.6701 94.3899 57.2101 94.6699 57.5901C94.7399 57.6901 94.7699 57.8901 94.6799 58.0601C93.7399 59.8901 92.8699 61.6201 92.1399 63.6201C92.0599 63.8501 91.55 63.5801 91.48 63.2501C91.27 62.1501 90.8999 61.1601 90.3999 60.1701L89.1099 57.5701C89.8599 57.6201 90.4 57.7801 91.25 57.6601C91.09 55.1501 91.93 53.0301 92.95 50.8601C95.04 46.4201 99.0701 43.2401 103.83 42.3301H105.83H105.82Z" fill="#FE1313"/>
<path d="M114.27 75.8199C113.91 75.2199 113 75.1998 112.42 75.2398C112.32 75.7598 112.58 76.0699 113.09 76.5599C110.52 79.5099 106.28 80.16 102.84 78.35L98.9098 76.2899C97.5898 75.5999 96.3698 74.8899 94.8698 74.5599C94.6698 74.5199 94.4598 74.3399 94.3998 74.1499C94.5998 73.9999 95.3099 73.43 95.6999 73.1C95.8699 72.99 96.0198 72.8699 96.1398 72.7499L99.9699 68.8099L101.53 67.0999C103.61 64.9399 101.83 63.0799 101.64 63.0899C101.52 63.0899 100.88 63.9699 100.75 64.1399C98.3399 67.3799 95.5898 70.2999 92.6098 73.0299C91.6798 73.8799 91.09 74.0699 89.82 74.1399C85.94 74.3599 82.29 76.4999 79.84 79.4199C79.46 79.8699 79.5099 80.6899 79.7099 81.0299C80.6199 82.4999 83.6 81.0899 85.6 80.1599C87.67 79.1999 89.47 77.9899 91.33 76.5499C92.73 76.6799 94.0199 77.2299 95.2399 77.9299L98.58 79.8699C100.07 80.7299 101.57 81.6699 103.33 81.9499C107.52 82.6099 110.3 81.3799 113.56 78.9199C114.5 78.2099 114.86 76.7799 114.27 75.7999V75.8199ZM80.6 80.4199C82.34 77.9099 85.21 76.7499 88.08 76.4599C85.75 78.0299 83.4 79.4999 80.6 80.4199Z" fill="#FE1313"/>
<path d="M0 36.2204V35.3105C0.86 35.3305 1.96994 35.4004 2.68994 34.7004C3.32994 34.0804 3.19995 33.0105 3.44995 32.1205V16.7704C3.12995 15.6404 3.45009 14.3105 2.59009 13.6205C1.85009 13.0405 0.82 13.0704 0 13.1004V12.1905L8.8999 12.1205C9.9799 12.1205 10.98 12.0404 12.03 12.1004C15.05 12.2804 17.8601 13.1704 20.0901 15.2204C23.4501 18.3004 24.5099 21.8105 24.1499 26.3205C23.7299 31.5905 19.72 35.7804 14.26 36.1004L0 36.2104V36.2204ZM19.25 28.4804L19.4399 26.5605C19.5699 25.2005 19.5199 23.8304 19.4199 22.4604C19.0799 17.4804 16.4701 13.5904 11.3101 13.2604L8.35986 13.0705C7.79986 13.0305 7.29004 13.4304 7.29004 14.0304V31.4804C7.29004 32.3904 7.44007 33.5305 8.07007 34.1205C9.12007 35.1105 10.5001 35.1404 11.8501 35.1404C16.3901 35.1604 18.81 33.1104 19.26 28.4704L19.25 28.4804Z" fill="white"/>
<path d="M24.95 69.8896H14.2L14.23 68.9896C15.1 68.9796 16.1601 68.9496 16.8201 68.2796C17.1701 67.9296 17.45 66.9296 17.45 66.3396V50.6196L17.2801 48.9796C17.2001 48.2696 16.8201 47.5996 16.0901 47.4596L14.0101 47.0596C14.0001 46.7596 14.1301 46.1996 14.3101 46.2396L15.0201 46.4096L23.0601 46.2396C23.2001 46.2096 24.84 46.2396 25.72 46.3396C29.4 46.7796 32.5699 48.3596 32.8899 52.1696C33.0899 54.5996 31.85 56.6296 29.69 57.7396C28.41 58.3896 27.1001 58.8896 25.6001 58.9196L21.3401 58.9996L21.19 60.8396C21.09 61.9996 21.11 63.2596 21.19 64.4296L21.3201 66.3196C21.3601 66.9496 21.3501 68.0995 22.0201 68.4795C22.8701 68.9595 23.96 68.9996 24.94 69.0396L24.96 69.9196L24.95 69.8896ZM28.23 55.1296C28.71 53.8296 28.69 52.2996 28.46 50.9396C28.08 48.6496 26.2601 47.4296 24.0101 47.4396H22.3699C22.3099 47.4496 22.1901 47.4496 22.0601 47.4596C21.5301 47.4796 21.1099 47.9096 21.1099 48.4496L21.1299 57.7796C24.3099 58.0896 27.15 58.0496 28.22 55.1296H28.23Z" fill="white"/>
<path d="M42.1399 69.0004L42.71 68.9705C42.83 68.9705 42.81 69.3304 42.8 69.6904H34.8401L34.79 69.0604C34.79 68.9404 35.2001 68.9405 35.3401 68.9705C36.3801 69.1405 37.3201 68.4004 37.3201 67.2804L37.3401 56.0604C37.3401 55.1704 37.3699 54.1204 36.8999 53.3604C36.5499 52.8004 35.4301 52.7804 34.8201 52.7704L34.77 52.0204L36.6199 52.1704C40.7999 52.5104 44.9701 51.1604 47.8201 53.4004C49.4001 54.6404 49.5099 58.3704 47.6399 59.8004C46.6599 60.5504 45.7799 60.8604 44.3999 61.1104C44.5799 61.4504 44.9 61.8604 45.2 62.1904L49.28 66.8404C49.85 67.4904 50.3699 68.2104 51.1199 68.6404C52.2199 69.2804 53.4399 68.6304 53.9199 67.5104L56.4199 61.6504L60.24 51.8104C60.56 51.6404 61.0999 51.6404 61.4199 51.8004L67.6099 67.2504C68.0999 68.4604 69.17 68.9604 70.47 68.9604V69.6804H62.6699V68.9904C63.2899 68.9704 64 68.9204 64.55 68.6304C64.78 68.1404 64.6099 67.2004 64.4199 66.6704L63.2 63.3104H56.6499L55.3101 66.9604C55.1601 67.3604 55.09 68.4005 55.48 68.6005C56.07 68.9005 56.6901 68.9404 57.3501 69.0004V69.7004L50.1599 69.6504H47.9099L42.3201 62.6904C41.7701 62.0004 41.27 61.3604 40.22 61.5204L40.28 67.2404C40.29 68.3104 41.0299 69.0404 42.1299 68.9904L42.1399 69.0004ZM45.74 58.3304C46.13 56.5604 45.82 54.4804 44.25 53.5304C43.09 52.8204 41.66 52.9204 40.26 53.0304L40.24 60.8004L42.4299 60.6704C43.9299 60.5804 45.37 60.0104 45.74 58.3304ZM62.73 62.2204L59.8999 55.1304L57.0801 62.2504L62.73 62.2104V62.2204Z" fill="white"/>
<path d="M33.3201 24.3895L33.3401 32.3895C33.3401 33.4095 34.1801 34.3095 35.0701 34.6495C37.3601 35.5195 41.7 35.3796 43.73 33.8696C45.44 32.5996 44.7301 30.2396 45.5701 30.1696C46.2401 30.1196 46.28 30.3496 46.24 30.9396L46.01 34.0396L45.8699 36.2195H25.8899L25.8699 35.3295C26.7899 35.3095 27.7 35.3295 28.47 34.7695C28.91 34.4395 29.3 33.3595 29.3 32.7095V15.7095C29.3 15.1195 28.96 14.0395 28.53 13.7595C27.82 13.2795 26.8999 13.2696 25.9399 13.1096L25.8899 12.0195H44.0701V17.6495L43.22 17.6296C42.65 14.8196 41.5899 13.1295 38.6199 13.2795C37.8099 13.3195 37.03 13.1595 36.25 13.1495L33.3301 13.0995V23.0795C34.9601 23.2195 36.6599 23.1396 37.9099 22.0396C38.7699 21.2796 38.98 20.1095 39.01 18.8995C39.32 18.7995 39.9599 18.7395 40.1399 18.7595L39.99 22.5596V24.9296L40.1399 28.1296C40.1899 28.1296 39.6199 28.1895 39.3899 28.2195C39.1899 28.2395 38.99 27.7396 38.95 27.4896C38.69 25.8596 37.5101 24.4696 35.8201 24.4396L33.3101 24.3796L33.3201 24.3895Z" fill="white"/>
<path d="M47.3699 12.1898L57.8799 12.2098L57.9099 12.8298C57.9099 12.9898 55.0401 12.9198 55.0901 14.4598C55.1201 15.4098 55.4999 16.5798 55.8699 17.5398L60.8 30.3198L63.9099 23.0798L68.3401 14.2398L70.1001 11.2698L72.8401 6.81982L70.0801 6.34979C72.4601 5.19979 74.5101 3.98977 76.8101 2.25977C75.9401 4.71977 75.4401 6.98981 75.3101 9.61981L73.74 7.52979C72.22 10.1998 70.92 12.7398 69.71 15.4598L66.96 21.6298L60.8301 36.7598C60.6101 37.0398 59.81 37.0298 59.49 36.8398L53.0901 20.9098L51.0801 15.9598C50.2701 13.9698 49.8099 13.3898 47.3899 13.0698V12.2098L47.3699 12.1898Z" fill="white"/>
<path d="M105.57 33.621C106.99 32.121 106.87 29.771 107.13 29.741L108.03 29.6409L107.89 32.0309C107.81 33.4409 107.89 34.8009 107.63 36.2109H86.76L86.77 35.4709C86.77 35.1409 88.81 35.5509 89.53 34.6409C90.01 34.0209 90.3101 32.961 90.3101 32.101L90.3301 16.561L90.0901 14.8309C89.7801 12.5909 87.67 13.331 86.99 12.881C86.8 12.761 86.87 12.0509 87.02 11.9609L88.3501 12.181H96.3201L97.6499 12.001L97.5601 12.921C97.5101 13.421 94.91 12.271 94.45 14.851L94.1799 16.381V30.9109L94.4099 32.5109C94.6199 34.0309 95.6399 35.041 97.1899 35.041H102.33C103.54 35.051 104.78 34.441 105.58 33.601L105.57 33.621Z" fill="white"/>
<path d="M85.74 67.9395C84.43 68.9395 82.8099 69.6294 81.1699 69.6394L71.0801 69.7095L71.03 69.0695C71.03 68.9495 71.4401 68.9495 71.5901 68.9695C72.4101 69.0695 73.3599 68.6095 73.3599 67.5995V54.2995C73.3599 52.7595 71.04 52.9095 71.04 52.6795V52.1295C71.03 51.9895 71.4699 52.1894 71.6099 52.2094L76.49 52.1595C77.82 52.1495 79.0101 52.0495 80.3201 52.1595C84.9601 52.5595 88.5701 56.0794 88.5801 60.7594V61.7295C88.5801 64.0695 87.73 66.4095 85.75 67.9195L85.74 67.9395ZM85.1399 62.3795V59.8495C85.1299 57.5295 84.2199 55.1695 82.1099 53.8795C81.3999 53.4395 80.2599 53.0094 79.4099 53.0094H76.3101L76.3501 67.2794C76.3501 68.2994 77.8801 68.8095 78.6001 68.8295L80.1899 68.8794C82.1699 68.9394 83.9399 67.7795 84.6299 65.7895C84.9799 64.7695 85.1499 63.5595 85.1499 62.3795H85.1399Z" fill="white"/>
<path d="M84.1799 36.2104H73.2399V35.3404C74.1399 35.2704 75.1798 35.2904 75.9098 34.6704C76.3798 34.2704 76.6398 33.0204 76.6398 32.3104L76.6598 16.4004L76.4499 14.9804C76.0199 12.1504 73.0399 13.6504 72.9999 12.6804C72.9899 12.3604 73.1599 12.1504 73.4499 12.1504H83.9599C83.9599 12.3204 83.9198 12.7004 83.8698 12.8804C83.7498 13.3104 81.0599 12.5204 80.7399 14.8004L80.5199 16.3904L80.54 32.2904C80.54 33.0104 80.8099 34.0804 81.1899 34.5804C82.2099 35.9204 84.5199 34.5804 84.1799 36.2004V36.2104Z" fill="white"/>
<path d="M101.21 63.9702C101.17 63.7402 100.71 63.3402 100.5 63.3402H94.21L92.8799 67.0302C92.7599 67.3702 92.66 68.2802 92.96 68.5102C93.51 68.9402 94.1899 68.9802 94.8699 69.0202V69.7203L89.05 69.7003L89.0701 69.0903C89.0701 68.8103 90.6899 69.1902 91.4399 67.5302L93.1299 63.7402L97.8 51.8502C98.02 51.7102 98.5499 51.6802 98.8599 51.7402L100.37 55.3402L102.96 61.8302L103.58 63.3602L104.97 66.7202C105.53 68.0602 106.37 69.1203 108.02 68.9603L107.98 69.7003H100.21L100.18 69.0602C100.18 68.8602 101.74 69.1602 102.14 68.5002C102.62 67.7102 101.6 66.2902 101.2 63.9602L101.21 63.9702ZM100.22 62.2402L97.47 55.0703L94.6399 62.2402H100.22Z" fill="white"/>
<path d="M51.76 45.6991C51.64 45.2991 51.33 44.5791 50.99 44.4091C50.57 44.2091 49.8799 44.1891 49.3599 44.2291V46.9891C49.3499 47.2991 49.57 47.9091 49.76 48.1891C51.09 48.7991 52.86 48.7291 53.95 47.7791C54.12 47.2591 54.1901 47.0091 54.5701 46.3991L54.6499 48.9691L46.1399 48.9391C46.5399 48.3191 47.6899 48.6791 47.6899 48.0291L47.72 40.4191C47.72 39.7091 46.42 39.2891 45.5 39.7291C45.21 39.8691 44.9801 40.4091 44.8501 40.8091L42.1899 49.2891H41.5601L39.27 41.9891C38.61 44.2791 37.9001 46.4291 37.0801 48.6991L36.8599 49.3091C36.8099 49.4491 36.25 49.2391 36.2 49.1691L33.3999 40.4991C33.1299 39.8391 32.6799 39.7091 31.8599 39.1791C33.5399 39.1091 34.98 39.0991 36.48 39.2091L35.02 40.2091L37.0701 46.8891C37.9101 44.4191 38.55 42.2791 39.22 39.9291L39.3999 39.2891C39.4399 39.1491 39.89 39.1291 40.03 39.2191L42.3799 46.7691C43.0699 44.6991 44.54 40.3491 44.03 39.9891L42.8101 39.1491L53.8699 39.1191V41.4891L53.3301 41.4691C53.4001 40.5191 52.66 39.6791 51.71 39.6691H49.3201V43.6791C49.8801 43.6991 50.58 43.6391 51.04 43.3291C51.41 43.0791 51.53 42.3991 51.99 41.6891L52.0901 45.2891L52.1499 45.7191C52.1599 45.8091 51.75 45.7891 51.72 45.6991H51.76Z" fill="white"/>
<path d="M32.8599 9.42957C32.9499 9.43957 33.07 9.60957 33.21 9.99957L28.6399 10.0295L28.6099 9.55957C28.6099 9.39957 30.0701 9.71955 30.0601 8.78955V5.10956H24.95V8.59955C24.94 8.74955 24.9799 9.16956 25.1099 9.23956C25.2699 9.32956 25.5701 9.42952 25.8501 9.50952L26.3501 9.64954C26.4801 9.68954 26.15 10.0195 26.02 10.0295H22.1499C22.0199 10.0295 21.5899 9.78957 21.6699 9.74957C22.3599 9.34957 22.8 9.50956 22.96 9.23956C23.07 9.04956 23.26 8.52956 23.27 8.29956L23.3401 3.65955C23.3601 2.61955 23.2699 1.56953 22.9099 0.639526C22.3699 0.589526 21.8701 0.639551 21.5701 0.0395508L26.4299 0.0195312C26.5099 0.869531 24.96 0.259521 24.96 1.25952V4.57953H30.0601V1.45953C30.0801 0.129534 28.6001 0.959561 28.6001 0.0495605L33.1399 0.029541C33.1099 0.219541 33.06 0.51957 33.03 0.55957C32.74 0.58957 32.15 0.61958 32.05 0.81958C31.95 1.01958 31.75 1.52954 31.75 1.77954L31.72 7.66956L31.8899 8.76953C31.9499 9.18953 32.0699 9.50953 32.8699 9.45953L32.8599 9.42957Z" fill="white"/>
<path d="M69.8599 44.9409C69.6099 44.6309 69.0201 44.4908 68.8401 44.7008L68.8799 47.8608C68.8799 48.4108 69.82 48.7108 70.26 48.6108C70.29 48.6708 70.2599 49.1508 70.1599 49.1408H69.51L66.5901 49.1108H66.02C65.89 49.1408 65.8699 48.6709 65.9199 48.6309L66.78 48.4708C67 48.4308 67.2 47.8908 67.2 47.6608L67.22 40.9208C67.22 40.5708 67.1101 39.9409 66.8501 39.8109L65.5901 39.1708L71.3699 39.1309C72.5299 39.2109 72.73 39.5409 73.05 39.8109C73.86 40.5009 73.9601 41.6708 73.5901 42.6408C73.2501 43.5108 72.3299 44.1008 71.1899 44.2708L73.03 46.3908L73.97 47.4908C74.45 48.0508 75.14 48.5709 75.98 49.0709L73.2 49.1008L69.8501 44.9308L69.8599 44.9409ZM70.77 43.8109C71.19 43.7409 71.54 43.4708 71.72 43.0908C72.18 42.1008 72.0601 40.9009 71.3201 40.1309C70.7401 39.5309 69.6699 39.6408 68.8599 39.7108V44.1108L70.78 43.8109H70.77Z" fill="white"/>
<path d="M37.1899 5.13953L37.1399 8.21954C37.1199 9.57954 40.1199 10.0296 41.6699 8.74957L42.3401 7.25952C42.4401 8.46952 42.4299 8.86955 42.4199 10.0396L40.23 9.90955C38.74 9.81955 37.27 9.82955 35.77 9.90955C35.13 9.94955 34.27 10.4095 34 9.51953L34.99 9.46954C35.22 9.45954 35.5 8.98957 35.5 8.74957V1.47955C35.5 0.919553 35.09 0.419536 34.29 0.649536L34 0.0395508L41.7 0.0195312V2.38953L41.1399 2.34955C41.1599 1.65955 40.6699 0.639568 39.8599 0.619568L37.1499 0.55957V4.54956C38.1499 4.73956 39.29 4.32954 39.47 3.27954L39.54 2.84955C39.56 2.72955 39.9601 2.76958 40.0801 2.81958L39.9399 4.76953C39.9099 5.17953 40.0701 5.98956 40.0901 6.35956C40.0901 6.44956 39.83 6.84953 39.78 6.76953C39.21 5.89953 39.3799 4.85955 37.1899 5.15955V5.13953Z" fill="white"/>
<path d="M80.79 48.97C79.31 49.44 77.87 49.26 76.7 48.36L75.99 49.0799L75.9399 46.07C76.1099 46.05 76.46 46.02 76.49 46.13L76.6399 46.61C77.0999 48.02 78.1999 48.9699 79.6599 48.6999C80.5299 48.5399 81.1501 48.13 81.3301 47.29C81.4701 46.65 81.2099 45.73 80.4299 45.35L77.99 44.18C76.59 43.51 75.7401 41.9499 76.5801 40.3899C77.4701 38.7299 79.98 38.52 81.46 39.66L82.1099 39.0199L82.1699 41.86L81.6499 41.8299C81.4999 41.0599 81.2099 40.3099 80.6799 39.9499C80.0199 39.4899 79.23 39.29 78.5 39.67C78.08 39.89 77.6401 40.5 77.5901 40.88C77.5201 41.36 77.9199 42.0999 78.3799 42.3299L81.2 43.71C82.28 44.24 82.9699 45.3899 82.8699 46.4499C82.7599 47.6299 82.0501 48.58 80.8101 48.97H80.79Z" fill="white"/>
<path d="M18.5701 10.02L16.24 9.91998L13.8799 10.03C13.7799 9.88997 13.63 9.66 13.72 9.63C14.48 9.38 15.47 9.45997 15.47 8.33997L15.49 0.849976C14.52 0.339976 13.3101 0.479968 12.3101 1.02997L11.99 2.21997C11.95 2.35997 11.46 2.34998 11.46 2.16998L11.5 0H20.8899L20.96 2.35999L20.47 2.33997L20.1099 1.02997C19.1899 0.509968 18.1299 0.35 17.1199 0.75V8.56C17.1199 9.14 17.6399 9.50998 18.1899 9.47998L18.6799 9.45996C18.7999 9.45996 18.7001 10.0199 18.5701 10.0099V10.02Z" fill="white"/>
<path d="M61.5801 45.44L57.8401 45.46L56.96 48.05C57.23 48.32 57.81 48.53 58.26 48.63C58.26 48.62 58.1599 48.91 58.1199 49.02C58.0899 49.11 57.89 49.11 57.71 49.02L55.53 49.07C55.45 49.07 55.1501 49.07 55.0801 49.1C55.0101 49.13 55.01 48.83 55 48.64C55.66 48.5 56.22 48.15 56.47 47.47C57.65 44.72 58.7 42.07 59.72 39.26C59.85 39.11 60.0499 38.9 60.1899 38.88C60.3299 38.86 60.5599 39.11 60.6599 39.26L64.2 47.93C64.51 48.21 65.13 48.51 65.48 48.63C65.57 48.67 65.59 49.03 65.48 49.01H64.8999C63.8599 49.03 63.01 48.93 62.01 49.01H61.3599C61.2299 49.02 61.2199 48.54 61.3599 48.57C61.6799 48.64 62.51 48.33 62.46 48.04L61.5901 45.46L61.5801 45.44ZM61.29 44.89L59.6899 40.92L58.1099 44.89H61.29Z" fill="white"/>
</svg>
